<?xml version="1.0" standalone="no"?>
<!DOCTYPE svg PUBLIC "-//W3C//DTD SVG 20010904//EN"
 "http://www.w3.org/TR/2001/REC-SVG-20010904/DTD/svg10.dtd">
<svg version="1.0" xmlns="http://www.w3.org/2000/svg"
 width="1328.000000pt" height="692.000000pt" viewBox="0 0 1328.000000 692.000000"
 preserveAspectRatio="xMidYMid meet">
<metadata>
Created by potrace 1.14, written by Peter Selinger 2001-2017
</metadata>
<g transform="translate(0.000000,692.000000) scale(0.100000,-0.100000)"
fill="#000000" stroke="none">
<path d="M6840 5192 c-66 -36 -74 -70 -78 -309 l-4 -213 -100 0 c-114 0 -154
-13 -182 -60 -29 -50 -32 -128 -8 -184 29 -65 76 -85 198 -86 l92 0 5 -807 c4
-685 7 -823 21 -908 49 -303 162 -456 390 -532 73 -24 96 -27 231 -27 139 -1
153 1 186 22 47 28 69 75 69 144 0 63 -25 109 -71 134 -19 9 -77 20 -143 26
-138 11 -200 37 -245 99 -73 100 -81 206 -81 1131 l0 706 238 4 c215 3 240 5
271 23 51 30 74 67 79 128 6 71 -23 138 -70 164 -29 16 -64 18 -275 21 l-243
3 0 217 c0 242 -5 261 -72 302 -45 27 -159 28 -208 2z"/>
<path d="M1057 4750 c-356 -64 -623 -313 -691 -643 -14 -66 -16 -195 -16 -979
0 -840 1 -905 18 -937 31 -62 62 -76 162 -76 99 0 128 13 165 76 19 33 20 57
25 894 l5 860 26 72 c88 239 253 364 483 364 138 0 220 -22 332 -93 129 -80
228 -220 281 -396 15 -51 18 -139 22 -862 6 -779 7 -806 26 -845 28 -56 75
-80 155 -80 77 0 124 23 155 75 20 34 20 54 26 840 6 891 2 842 73 995 64 136
165 244 287 305 165 84 386 82 532 -3 64 -38 161 -146 196 -220 67 -139 64
-105 70 -1044 6 -836 6 -852 26 -879 37 -49 81 -66 167 -62 86 3 118 20 153
79 20 33 20 52 20 939 0 847 -1 910 -19 985 -76 329 -327 564 -674 631 -142
27 -342 14 -477 -31 -206 -69 -399 -222 -497 -392 -16 -29 -33 -53 -36 -53 -4
0 -23 28 -44 63 -106 181 -321 339 -543 398 -89 24 -322 35 -408 19z"/>
<path d="M5011 4739 c-329 -69 -589 -287 -746 -623 -201 -430 -201 -992 0
-1422 193 -415 539 -644 973 -644 490 0 861 272 1037 760 73 204 107 476 87
702 -60 662 -401 1124 -907 1229 -123 26 -317 25 -444 -2z m409 -358 c266 -84
471 -375 546 -776 25 -134 26 -393 1 -517 -70 -351 -250 -586 -512 -668 -97
-31 -267 -38 -355 -16 -304 76 -517 369 -586 803 -20 130 -15 416 10 526 102
445 371 690 741 672 50 -2 119 -13 155 -24z"/>
<path d="M11215 4734 c-424 -79 -672 -324 -692 -684 -3 -56 -1 -117 6 -148 50
-234 276 -417 736 -597 94 -36 223 -87 287 -112 207 -80 336 -171 393 -275 25
-45 29 -64 29 -125 -1 -134 -81 -247 -218 -312 -244 -115 -583 -83 -870 80
-203 116 -230 125 -299 95 -66 -28 -97 -88 -97 -187 0 -83 22 -122 95 -168
153 -97 357 -183 525 -222 122 -29 392 -36 522 -15 390 64 637 257 719 563 31
114 31 293 0 383 -31 88 -64 142 -134 217 -117 125 -301 224 -742 403 -291
118 -404 175 -479 241 -65 59 -86 100 -86 171 0 156 112 271 315 323 200 51
536 15 741 -80 104 -48 155 -54 213 -23 60 31 83 65 89 131 5 61 -9 112 -40
152 -41 52 -246 137 -426 176 -131 28 -467 36 -587 13z"/>
<path d="M8156 4630 c-38 -12 -66 -38 -82 -77 -22 -51 -20 -1574 2 -1721 67
-454 327 -716 780 -787 132 -21 416 -16 529 10 417 93 647 327 732 744 16 78
18 164 18 911 0 779 -1 827 -18 858 -49 89 -218 94 -281 9 -21 -28 -21 -37
-27 -860 -5 -820 -6 -833 -28 -917 -83 -318 -288 -460 -661 -460 -265 1 -443
66 -571 209 -56 63 -110 166 -133 256 -31 124 -36 242 -36 983 0 818 2 789
-60 826 -36 21 -123 29 -164 16z"/>
</g>
</svg>
